<svg width="32" height="32" viewBox="0 0 32 32" fill="none" xmlns="http://www.w3.org/2000/svg">
  <rect width="32" height="32" rx="6" fill="#0d9488"/>
  <circle cx="16" cy="16" r="12" fill="#ffffff" fill-opacity="0.1"/>
  
  <!-- Stethoscope icon -->
  <path d="M12 8C12 7.44772 12.4477 7 13 7C13.5523 7 14 7.44772 14 8V11H18V8C18 7.44772 18.4477 7 19 7C19.5523 7 20 7.44772 20 8V11C20 12.1046 19.1046 13 18 13H14C12.8954 13 12 12.1046 12 11V8Z" fill="#ffffff"/>
  <path d="M13 13V16C13 17.6569 14.3431 19 16 19C17.6569 19 19 17.6569 19 16V13" stroke="#ffffff" stroke-width="1.5" stroke-linecap="round"/>
  <circle cx="16" cy="21" r="2" fill="#ffffff"/>
  <path d="M21 16C21 17.1046 21.8954 18 23 18C24.1046 18 25 17.1046 25 16C25 14.8954 24.1046 14 23 14C21.8954 14 21 14.8954 21 16Z" fill="#ffffff"/>
  <path d="M19 16H21" stroke="#ffffff" stroke-width="1.5" stroke-linecap="round"/>
</svg>
